<svg width="1063" height="266" viewBox="0 0 1063 266" fill="none" xmlns="http://www.w3.org/2000/svg">
<path d="M556.09 92.9023V105.041H498.834V92.9023H556.09ZM516.773 64.3281H530.631V181.633C530.631 188.15 532.242 193.055 535.465 196.35C538.688 199.572 543.163 201.184 548.893 201.184C550.182 201.184 551.471 201.112 552.76 200.969C554.12 200.754 555.553 200.467 557.057 200.109L560.064 212.678C558.417 213.322 556.52 213.824 554.371 214.182C552.223 214.54 550.003 214.719 547.711 214.719C538.831 214.719 531.454 211.997 525.582 206.555C519.71 201.04 516.773 193.843 516.773 184.963V64.3281ZM576.504 213V92.9023H590.362V213H576.504ZM583.487 72.3848C580.622 72.3848 578.151 71.418 576.075 69.4844C574.069 67.4792 573.067 65.0801 573.067 62.2871C573.067 59.5658 574.069 57.2383 576.075 55.3047C578.151 53.3711 580.622 52.4043 583.487 52.4043C586.351 52.4043 588.786 53.3711 590.791 55.3047C592.797 57.2383 593.799 59.5658 593.799 62.2871C593.799 65.0801 592.797 67.4792 590.791 69.4844C588.786 71.418 586.351 72.3848 583.487 72.3848ZM661.694 260.48C649.448 260.48 639.458 258.189 631.723 253.605C623.989 249.022 618.367 243.293 614.858 236.418L626.245 228.898C627.892 231.978 630.184 234.95 633.12 237.814C636.056 240.751 639.852 243.15 644.507 245.012C649.162 246.945 654.891 247.912 661.694 247.912C672.365 247.912 680.958 245.262 687.475 239.963C694.064 234.663 697.358 226.428 697.358 215.256V188.186H695.962C694.386 191.838 692.095 195.49 689.087 199.143C686.079 202.723 682.14 205.731 677.27 208.166C672.401 210.529 666.349 211.711 659.116 211.711C649.52 211.711 640.998 209.348 633.55 204.621C626.173 199.895 620.337 193.127 616.04 184.318C611.815 175.438 609.702 164.911 609.702 152.736C609.702 140.562 611.779 129.891 615.932 120.725C620.086 111.486 625.887 104.289 633.335 99.1328C640.783 93.9049 649.448 91.291 659.331 91.291C666.707 91.291 672.83 92.6159 677.7 95.2656C682.57 97.8438 686.473 101.031 689.409 104.826C692.345 108.622 694.637 112.31 696.284 115.891H697.788V92.9023H711.108V216.115C711.108 226.285 708.96 234.628 704.663 241.145C700.438 247.733 694.601 252.603 687.153 255.754C679.705 258.905 671.219 260.48 661.694 260.48ZM660.835 199.035C672.365 199.035 681.352 194.882 687.798 186.574C694.243 178.267 697.466 166.88 697.466 152.414C697.466 143.033 696.033 134.725 693.169 127.492C690.376 120.188 686.222 114.458 680.708 110.305C675.265 106.079 668.641 103.967 660.835 103.967C652.742 103.967 645.939 106.151 640.425 110.52C634.91 114.816 630.721 120.617 627.856 127.922C625.063 135.227 623.667 143.391 623.667 152.414C623.667 161.581 625.099 169.673 627.964 176.691C630.828 183.71 635.018 189.188 640.532 193.127C646.118 197.066 652.886 199.035 660.835 199.035ZM779.863 215.578C770.051 215.578 761.422 213 753.974 207.844C746.598 202.616 740.833 195.311 736.679 185.93C732.597 176.548 730.556 165.663 730.556 153.273C730.556 140.956 732.633 130.142 736.786 120.832C740.94 111.522 746.705 104.289 754.081 99.1328C761.529 93.9049 770.159 91.291 779.97 91.291C787.346 91.291 793.433 92.6159 798.232 95.2656C803.101 97.8438 807.004 101.031 809.941 104.826C812.948 108.622 815.24 112.31 816.816 115.891H817.997V52.9414H831.855V213H818.427V190.656H816.816C815.24 194.309 812.948 198.068 809.941 201.936C806.933 205.803 802.994 209.061 798.124 211.711C793.254 214.289 787.167 215.578 779.863 215.578ZM781.474 202.902C789.28 202.902 795.904 200.754 801.347 196.457C806.79 192.16 810.943 186.288 813.808 178.84C816.744 171.32 818.212 162.762 818.212 153.166C818.212 143.498 816.78 134.976 813.915 127.6C811.051 120.223 806.861 114.458 801.347 110.305C795.904 106.079 789.28 103.967 781.474 103.967C773.525 103.967 766.793 106.151 761.279 110.52C755.764 114.888 751.575 120.796 748.71 128.244C745.917 135.62 744.521 143.928 744.521 153.166C744.521 162.404 745.953 170.783 748.818 178.303C751.682 185.822 755.836 191.802 761.279 196.242C766.793 200.682 773.525 202.902 781.474 202.902ZM890.941 215.686C883.708 215.686 877.084 214.289 871.068 211.496C865.052 208.632 860.254 204.514 856.673 199.143C853.164 193.7 851.41 187.111 851.41 179.377C851.41 173.433 852.52 168.456 854.74 164.445C856.96 160.435 860.147 157.141 864.3 154.562C868.454 151.913 873.324 149.836 878.91 148.332C884.567 146.757 890.798 145.575 897.601 144.787C904.333 143.928 910.026 143.212 914.681 142.639C919.336 141.994 922.881 140.992 925.316 139.631C927.751 138.27 928.968 136.086 928.968 133.078V130.285C928.968 122.049 926.533 115.604 921.664 110.949C916.794 106.223 909.811 103.859 900.716 103.859C892.051 103.859 884.997 105.757 879.554 109.553C874.112 113.348 870.316 117.824 868.168 122.98L854.847 118.146C857.569 111.63 861.328 106.402 866.127 102.463C870.925 98.5241 876.296 95.6953 882.24 93.9766C888.184 92.1862 894.199 91.291 900.287 91.291C904.87 91.291 909.632 91.8997 914.574 93.1172C919.515 94.3346 924.134 96.4115 928.431 99.3477C932.728 102.284 936.201 106.402 938.851 111.701C941.573 116.929 942.933 123.553 942.933 131.574V213H928.968V193.986H928.109C926.533 197.495 924.099 200.933 920.804 204.299C917.51 207.593 913.392 210.314 908.451 212.463C903.509 214.611 897.673 215.686 890.941 215.686ZM892.875 203.01C900.251 203.01 906.625 201.398 911.996 198.176C917.438 194.882 921.628 190.477 924.564 184.963C927.5 179.449 928.968 173.433 928.968 166.916V149.621C927.894 150.624 926.14 151.519 923.705 152.307C921.341 153.094 918.584 153.775 915.433 154.348C912.354 154.921 909.203 155.422 905.98 155.852C902.829 156.281 900.036 156.639 897.601 156.926C890.869 157.785 885.069 159.11 880.199 160.9C875.401 162.691 871.712 165.126 869.134 168.205C866.628 171.285 865.375 175.259 865.375 180.129C865.375 187.362 867.953 192.984 873.109 196.994C878.337 201.005 884.925 203.01 892.875 203.01ZM1056.91 92.9023L1013.19 213H998.26L954.432 92.9023H969.578L1005.13 194.738H1006.21L1041.87 92.9023H1056.91Z" fill="white"/>
<path d="M4 217.555L123.267 98.2877L242.534 217.555" stroke="white" stroke-width="10"/>
<path d="M111.696 218L281.696 48L451.696 218" stroke="white" stroke-width="10"/>
<path d="M58.2935 163.707L368.032 133.445" stroke="white" stroke-width="10"/>
<path d="M283.149 57.7903L185.571 148.576L365.362 134.665L283.149 57.7903Z" fill="white" stroke="white" stroke-width="10" stroke-linecap="round"/>
</svg>
